<mxfile host="app.diagrams.net" modified="2023-05-05T08:29:36.757Z" agent="Mozilla/5.0 (Windows NT 10.0; Win64; x64) AppleWebKit/537.36 (KHTML, like Gecko) Chrome/112.0.0.0 Safari/537.36" version="21.2.1" etag="uxXDR0ud7KbIfU_YaF8H" type="github">
  <diagram name="第 1 页" id="6ePSlr_A8pYiIeJ_UAUz">
    <mxGraphModel>
      <root>
        <mxCell id="0" />
        <mxCell id="1" parent="0" />
      </root>
    </mxGraphModel>
  </diagram>
</mxfile>
